<?xml version="1.0" encoding="UTF-8" standalone="no"?>
<!-- Created with Inkscape (http://www.inkscape.org/) -->

<svg
   width="62.205341mm"
   height="65.942818mm"
   viewBox="0 0 62.205341 65.942818"
   version="1.1"
   id="svg1"
   xml:space="preserve"
   xmlns="http://www.w3.org/2000/svg"
   xmlns:svg="http://www.w3.org/2000/svg"><defs
     id="defs1" /><g
     id="layer1"
     style="display:inline"
     transform="translate(-90.222918,-16.536457)"><path
       style="display:inline;fill:none;stroke:#000000;stroke-width:1.76389;stroke-linecap:round;stroke-linejoin:round;stroke-miterlimit:4;stroke-dasharray:none;stroke-opacity:1;paint-order:normal"
       d="m 116.89747,54.48309 v 11.29379 h 7.2483 V 54.32175"
       id="path7-6-9" /><path
       style="display:inline;fill:none;stroke:#000000;stroke-width:1.76389;stroke-linecap:round;stroke-linejoin:round;stroke-miterlimit:4;stroke-dasharray:none;stroke-opacity:1;paint-order:normal"
       d="m 116.89747,54.48309 v 11.29379 h 7.2483 V 54.32175"
       id="path8-8-6" /><path
       style="display:inline;fill:none;stroke:#ffffff;stroke-width:1.76389;stroke-linecap:round;stroke-linejoin:round;stroke-miterlimit:4;stroke-dasharray:none;stroke-opacity:1;paint-order:normal"
       d="m 116.89747,54.48309 v 11.29379 h 7.2483 V 54.32175"
       id="path3-3-4" /><path
       style="display:inline;fill:none;stroke:#ffffff;stroke-width:1.76389;stroke-linecap:round;stroke-linejoin:bevel;stroke-miterlimit:3;stroke-dasharray:none;stroke-opacity:1;paint-order:normal"
       d="m 108.33705,65.84589 h 24.54369"
       id="path5-2-5" /><path
       style="display:inline;fill:none;stroke:#ffffff;stroke-width:1.66487;stroke-linecap:round;stroke-linejoin:round;stroke-miterlimit:4;stroke-dasharray:none;stroke-opacity:1;paint-order:normal"
       d="m 103.79032,178.91129 v 24.07258 a 3,3 45 0 0 3,3 h 29.66129 a 3,3 135 0 0 3,-3 v -24.07258 a 3,3 45 0 0 -3,-3 h -29.66129 a 3,3 135 0 0 -3,3 z"
       id="path1-7-7"
       transform="matrix(1.1264116,0,0,0.99651166,-16.37176,-151.22392)" /><circle
       style="fill:#ffffff;fill-opacity:1;stroke:none;stroke-width:2.46089;stroke-linecap:round;stroke-linejoin:bevel;stroke-miterlimit:3;stroke-dasharray:none;stroke-opacity:1;paint-order:normal"
       id="path6-3-9"
       cx="137.87071"
       cy="18.64043"
       r="2.1039732" /><circle
       style="fill:#ffffff;fill-opacity:1;stroke:none;stroke-width:2.46089;stroke-linecap:round;stroke-linejoin:bevel;stroke-miterlimit:3;stroke-dasharray:none;stroke-opacity:1;paint-order:normal"
       id="circle6-5-9"
       cx="147.93843"
       cy="18.64043"
       r="2.1039732" /><circle
       style="fill:#ffffff;fill-opacity:1;stroke:none;stroke-width:2.46089;stroke-linecap:round;stroke-linejoin:bevel;stroke-miterlimit:3;stroke-dasharray:none;stroke-opacity:1;paint-order:normal"
       id="circle7-0-9"
       cx="147.93843"
       cy="28.864964"
       r="2.1039732" /><path
       style="fill:none;fill-opacity:1;stroke:#ffffff;stroke-width:1.53197;stroke-linecap:round;stroke-linejoin:round;stroke-miterlimit:3;stroke-dasharray:none;stroke-opacity:1;paint-order:normal"
       d="m 90.988902,81.64404 6.5203,-11.29349 6.553888,11.35165"
       id="path19-4-0" /><path
       d="m 117.14843,73.18485 c -1.00272,-1.75247 -2.86477,-2.83624 -4.88381,-2.84257 v -4.6e-4 c -3.1189,-6e-5 -5.64729,2.52832 -5.64723,5.64722 -6e-5,3.11891 2.52832,5.64729 5.64723,5.64723 2.01916,-0.007 3.88108,-1.09109 4.88336,-2.84395"
       style="fill:none;stroke:#ffffff;stroke-width:1.5594;stroke-linecap:round;stroke-linejoin:round;stroke-miterlimit:3;stroke-dasharray:none;stroke-opacity:1"
       id="path27-3-4" /><path
       style="fill:none;fill-opacity:1;stroke:#ffffff;stroke-width:1.53593;stroke-linecap:round;stroke-linejoin:round;stroke-miterlimit:3;stroke-dasharray:none;stroke-opacity:1;paint-order:normal"
       d="m 120.03222,81.653 6.53714,-11.32265 6.5708,11.38096"
       id="path32-9-6" /><path
       style="fill:none;fill-opacity:1;stroke:#ffffff;stroke-width:1.6531;stroke-linecap:round;stroke-linejoin:round;stroke-miterlimit:3;stroke-dasharray:none;stroke-opacity:1;paint-order:normal"
       d="M 151.60171,70.35745 V 81.61367"
       id="path56-0-2" /><path
       d="m 141.27117,82.30537 q -1.54498,0 -2.67594,-0.46451 -1.12087,-0.4645 -1.77723,-1.18145 -0.4847,-0.41402 -0.4847,-0.92901 0,-0.27264 0.20196,-0.4847 0.20196,-0.22215 0.54528,-0.22215 0.30294,0 0.53519,0.15147 0.23225,0.15147 0.44431,0.38372 0.4746,0.60587 1.26224,1.01989 0.79773,0.40391 1.97919,0.40391 0.80783,0 1.51468,-0.25245 0.70685,-0.25244 1.14106,-0.72704 0.44431,-0.47461 0.44431,-1.13097 0,-0.9694 -0.86842,-1.51468 -0.86842,-0.55539 -2.52447,-0.9896 -2.22154,-0.56548 -3.29192,-1.444 -1.06028,-0.87852 -1.06028,-2.30232 0,-0.98959 0.63617,-1.69645 0.64627,-0.70685 1.70654,-1.08047 1.07038,-0.37363 2.35282,-0.37363 1.24204,0 2.27202,0.41402 1.04009,0.41401 1.65606,1.13096 0.22215,0.19186 0.34333,0.41402 0.12117,0.21205 0.12117,0.4645 0,0.31304 -0.21205,0.5049 -0.20196,0.18176 -0.4948,0.18176 -0.29284,0 -0.53519,-0.17167 -0.23225,-0.18176 -0.40392,-0.38372 -0.37362,-0.52509 -1.09057,-0.87851 -0.71695,-0.35343 -1.71664,-0.35343 -0.75734,0 -1.41371,0.22215 -0.65636,0.21206 -1.06028,0.61598 -0.40391,0.40391 -0.40391,0.96939 0,0.84823 0.78763,1.37332 0.78764,0.51499 2.38311,0.9593 1.48439,0.40392 2.50428,0.90881 1.01988,0.4948 1.54498,1.20165 0.52509,0.70685 0.52509,1.73684 0,1.10067 -0.65637,1.8984 -0.65636,0.78764 -1.76713,1.21175 -1.11077,0.41402 -2.46389,0.41402 z"
       id="text63-8-5"
       style="font-size:20.1958px;font-family:Sono;-inkscape-font-specification:Sono;fill:#ffffff;fill-opacity:1;stroke:none;stroke-width:1.40248;stroke-linecap:round;stroke-linejoin:round;stroke-miterlimit:3;stroke-opacity:1"
       aria-label="S" /><path
       style="fill:none;stroke:#ffffff;stroke-width:0.761998;stroke-linecap:round;stroke-linejoin:round;stroke-miterlimit:3;stroke-dasharray:none;stroke-opacity:1"
       d="m 132.16801,29.50752 h -28.575 v 1.81901 h 28.575"
       id="path2-6-7" /><path
       style="fill:none;stroke:#ffffff;stroke-width:0.761998;stroke-linecap:round;stroke-linejoin:round;stroke-miterlimit:3;stroke-dasharray:none;stroke-opacity:1"
       d="m 125.09716,33.33722 h -21.54398 v 1.89867 h 21.54398"
       id="path4-2-5" /><path
       style="fill:none;stroke:#ffffff;stroke-width:0.761998;stroke-linecap:round;stroke-linejoin:round;stroke-miterlimit:3;stroke-dasharray:none;stroke-opacity:1"
       d="m 125.09716,39.48878 h -21.54398 v 1.89867 h 21.54398"
       id="path9-2-3" /><path
       style="fill:none;stroke:#ffffff;stroke-width:0.761998;stroke-linecap:round;stroke-linejoin:round;stroke-miterlimit:3;stroke-dasharray:none;stroke-opacity:1"
       d="m 125.09716,48.31925 h -21.54398 v 1.89867 h 21.54398"
       id="path11-1-4" /><circle
       style="fill:none;stroke:#ffffff;stroke-width:0.761998;stroke-linecap:round;stroke-linejoin:round;stroke-miterlimit:3;stroke-dasharray:none;stroke-opacity:1"
       id="path12-6-7"
       cx="133.39171"
       cy="30.36742"
       r="1.4221354" /><circle
       style="display:inline;fill:none;stroke:#ffffff;stroke-width:0.761998;stroke-linecap:round;stroke-linejoin:round;stroke-miterlimit:3;stroke-dasharray:none;stroke-opacity:1"
       id="path12-5-5-0"
       cx="126.46844"
       cy="34.325138"
       r="1.4221354" /><circle
       style="fill:none;stroke:#ffffff;stroke-width:0.761998;stroke-linecap:round;stroke-linejoin:round;stroke-miterlimit:3;stroke-dasharray:none;stroke-opacity:1"
       id="circle12-0-7"
       cx="133.39171"
       cy="44.588779"
       r="1.4221354" /><path
       style="fill:none;stroke:#ffffff;stroke-width:0.761998;stroke-linecap:round;stroke-linejoin:round;stroke-miterlimit:3;stroke-dasharray:none;stroke-opacity:1"
       d="m 132.16801,43.6958 h -28.575 v 1.81901 h 28.575"
       id="path13-2-3" /><circle
       style="display:inline;fill:none;stroke:#ffffff;stroke-width:0.761998;stroke-linecap:round;stroke-linejoin:round;stroke-miterlimit:3;stroke-dasharray:none;stroke-opacity:1"
       id="circle13-4-4"
       cx="126.46844"
       cy="40.443623"
       r="1.4221354" /><circle
       style="display:inline;fill:none;stroke:#ffffff;stroke-width:0.761998;stroke-linecap:round;stroke-linejoin:round;stroke-miterlimit:3;stroke-dasharray:none;stroke-opacity:1"
       id="circle14-2-0"
       cx="126.46844"
       cy="49.274097"
       r="1.4221354" /><path
       style="fill:none;stroke:#ffffff;stroke-width:0.759679;stroke-linecap:round;stroke-linejoin:round;stroke-miterlimit:3;stroke-dasharray:none;stroke-opacity:1"
       d="m 103.55994,29.58698 v 20.5778"
       id="path14-5-5" /></g></svg>
